<?xml version="1.0" encoding="UTF-8"?>
<svg version="1.1" xmlns="http://www.w3.org/2000/svg" width="512" height="512">
<path d="M0 0 C1.34275246 -0.01469078 1.34275246 -0.01469078 2.71263123 -0.02967834 C22.32122464 -0.19995566 41.28714451 -0.10421492 60.5078125 4.23828125 C61.97154297 4.55974121 61.97154297 4.55974121 63.46484375 4.88769531 C82.70077752 9.21767123 101.11830445 15.85993967 118.50683594 25.16992188 C120.60441474 26.28985902 122.71601261 27.38041121 124.828125 28.47265625 C141.42675649 37.21384002 155.95819376 48.32579192 169.5078125 61.23828125 C170.85535529 62.39189722 172.20891448 63.53854917 173.5703125 64.67578125 C189.95863518 79.00713338 202.46275827 97.66570599 213.5078125 116.23828125 C213.88244629 116.86347656 214.25708008 117.48867187 214.64306641 118.1328125 C232.05111849 147.60641734 242.41600188 184.09478378 242.74609375 218.35546875 C242.7558876 219.20205048 242.76568146 220.0486322 242.77577209 220.92086792 C243.34449383 282.89136446 224.92833081 342.34853047 181.06103516 387.63378906 C179.95050836 388.78097267 178.84675538 389.93472922 177.74755859 391.09277344 C168.07316624 401.26605257 157.92743642 410.08220262 146.5078125 418.23828125 C145.92306152 418.6677002 145.33831055 419.09711914 144.73583984 419.53955078 C125.13807806 433.89004166 102.5933736 444.00743581 79.5078125 451.23828125 C78.68442383 451.49931641 77.86103516 451.76035156 77.01269531 452.02929688 C71.56517488 453.71559648 66.08829409 455.0699512 60.5078125 456.23828125 C59.59596191 456.43292969 58.68411133 456.62757813 57.74462891 456.828125 C5.1030328 467.54379332 -50.35577175 458.45457173 -97.4921875 433.23828125 C-98.64847656 432.6246875 -99.80476563 432.01109375 -100.99609375 431.37890625 C-115.65396776 423.30790395 -129.03273022 413.37546321 -141.4921875 402.23828125 C-142.31976563 401.50327393 -142.31976563 401.50327393 -143.1640625 400.75341797 C-165.84348459 380.5252981 -183.75680361 355.82352486 -196.4921875 328.23828125 C-196.79463379 327.5932666 -197.09708008 326.94825195 -197.40869141 326.28369141 C-203.78190595 312.61612037 -208.57556601 298.56666439 -212.1796875 283.92578125 C-212.36998535 283.17014893 -212.5602832 282.4145166 -212.75634766 281.63598633 C-216.71789612 264.75882278 -218.04756978 247.84024485 -217.9296875 230.55078125 C-217.92512543 229.11818466 -217.92512543 229.11818466 -217.92047119 227.65664673 C-217.8479837 212.19699713 -216.91006065 197.36640168 -213.4921875 182.23828125 C-213.27788086 181.26246094 -213.06357422 180.28664062 -212.84277344 179.28125 C-209.6557922 165.12307425 -205.11228949 151.60809372 -199.4921875 138.23828125 C-199.18587402 137.50448242 -198.87956055 136.77068359 -198.56396484 136.01464844 C-189.30911536 114.22500281 -175.61702688 93.69421406 -159.48828125 76.38671875 C-157.66833504 74.42787253 -155.95501377 72.4153225 -154.2421875 70.36328125 C-139.4688285 53.53244531 -120.61086485 40.60810074 -101.4921875 29.23828125 C-100.86699219 28.86364746 -100.24179688 28.48901367 -99.59765625 28.10302734 C-70.52660837 10.93273826 -33.82922426 0.30569004 0 0 Z M-111.4921875 51.23828125 C-112.4409375 51.91246094 -113.3896875 52.58664063 -114.3671875 53.28125 C-130.5086775 65.06539629 -145.13226723 78.5132457 -157.4921875 94.23828125 C-158.306875 95.24761719 -159.1215625 96.25695312 -159.9609375 97.296875 C-166.26278082 105.18515373 -171.54901723 113.44369665 -176.4921875 122.23828125 C-176.894375 122.94162598 -177.2965625 123.6449707 -177.7109375 124.36962891 C-187.23332056 141.13423064 -194.10131992 158.80979321 -198.8671875 177.48828125 C-199.09374023 178.37217529 -199.32029297 179.25606934 -199.55371094 180.16674805 C-203.48420072 196.58171459 -205.02454853 212.8324323 -204.8671875 229.67578125 C-204.86253479 230.57070282 -204.85788208 231.46562439 -204.85308838 232.38766479 C-204.77309352 245.5374432 -204.36777414 258.35965124 -201.4921875 271.23828125 C-201.28819336 272.1833252 -201.08419922 273.12836914 -200.87402344 274.10205078 C-193.3253379 308.37879682 -178.91917878 340.08893988 -156.4921875 367.23828125 C-156.0178125 367.81416992 -155.5434375 368.39005859 -155.0546875 368.98339844 C-145.46601927 380.55097802 -135.33079126 390.93310683 -123.4921875 400.23828125 C-122.48285156 401.05296875 -121.47351563 401.86765625 -120.43359375 402.70703125 C-112.54531502 409.00887457 -104.2867721 414.29511098 -95.4921875 419.23828125 C-94.78884277 419.64046875 -94.08549805 420.04265625 -93.36083984 420.45703125 C-43.99931721 448.49463896 15.10546449 455.09826667 69.7578125 440.48828125 C93.45768387 433.79363025 116.56136853 423.8438741 136.5078125 409.23828125 C137.73168386 408.3735748 138.95564878 407.50900077 140.1796875 406.64453125 C165.487724 388.48720737 185.91442103 365.1202166 201.5078125 338.23828125 C201.92272949 337.52365723 202.33764648 336.8090332 202.76513672 336.07275391 C214.36015717 315.79372736 221.71386477 294.0454876 226.5078125 271.23828125 C226.68570312 270.43052246 226.86359375 269.62276367 227.046875 268.79052734 C238.1338338 216.49043895 224.9140441 157.65951344 196.08081055 113.30419922 C189.30953496 103.06583715 181.93729635 93.66669459 173.65234375 84.60546875 C171.76243176 82.51933639 169.94469503 80.39178364 168.1328125 78.23828125 C132.7922664 37.99825035 77.33226893 16.51989772 24.99584961 12.57983398 C-22.6718291 9.70070072 -72.56554105 23.39491608 -111.4921875 51.23828125 Z " fill="#000000" transform="translate(243.4921875,25.76171875)"/>
<path d="M0 0 C0.69992065 -0.0049649 1.39984131 -0.00992981 2.12097168 -0.01504517 C4.41627 -0.02955007 6.71149949 -0.03644512 9.00683594 -0.04199219 C10.60772706 -0.04774834 12.20861817 -0.05350601 13.80950928 -0.05926514 C17.15491047 -0.06973834 20.50028787 -0.07560667 23.84570312 -0.07910156 C28.13891206 -0.084613 32.43180811 -0.10871221 36.72491837 -0.13707352 C40.02594952 -0.15565181 43.32690406 -0.16090266 46.62798309 -0.16243744 C48.21168499 -0.16546973 49.79538537 -0.17351759 51.37903595 -0.18662262 C53.58627209 -0.2036013 55.79272581 -0.20182486 58 -0.1953125 C59.25653381 -0.19895813 60.51306763 -0.20260376 61.80767822 -0.20635986 C62.77574402 -0.08508728 63.74380981 0.0361853 64.74121094 0.16113281 C67.17216626 3.80756579 66.9943703 5.53574855 67 9.87988281 C67.00525696 10.89743652 67.00525696 10.89743652 67.01062012 11.93554688 C67.01942133 14.177513 67.01359412 16.41916348 67.00683594 18.66113281 C67.00818305 20.21907614 67.01012398 21.77701905 67.01263428 23.33496094 C67.01558335 26.59997561 67.0112949 29.86488086 67.00195312 33.12988281 C66.99055866 37.31653555 66.99711929 41.50293187 67.00909805 45.6895752 C67.01632252 48.9065952 67.01402603 52.12355434 67.00884247 55.34057617 C67.0075076 56.88435903 67.00914802 58.4281474 67.01380157 59.97192383 C67.0188765 62.12889256 67.01114332 64.2854451 67 66.44238281 C66.99840881 67.67021484 66.99681763 68.89804688 66.99517822 70.16308594 C66.74121094 73.16113281 66.74121094 73.16113281 64.74121094 76.16113281 C62.10701571 76.47548918 59.69600193 76.6021276 57.05761719 76.60253906 C55.90240822 76.62235085 55.90240822 76.62235085 54.72386169 76.64256287 C52.25044316 76.68353185 49.77739195 76.70510607 47.30371094 76.72363281 C25.72853309 76.62926912 25.72853309 76.62926912 7.05371094 86.34863281 C1.57093173 93.01687779 -1.25639521 100.23969783 -1.57519531 108.80175781 C-1.61708984 109.87167969 -1.65898437 110.94160156 -1.70214844 112.04394531 C-1.74146484 113.15511719 -1.78078125 114.26628906 -1.82128906 115.41113281 C-1.86447266 116.53777344 -1.90765625 117.66441406 -1.95214844 118.82519531 C-2.05810921 121.60372235 -2.16018048 124.38233672 -2.25878906 127.16113281 C-1.35312195 127.15225037 -0.44745483 127.14336792 0.48565674 127.13421631 C9.01972219 127.05407607 17.55366131 126.99317129 26.08801651 126.95388412 C30.47567036 126.9330071 34.86301335 126.90468771 39.25048828 126.859375 C43.4844951 126.8159208 47.71820287 126.79199657 51.95241547 126.78162384 C53.56798765 126.77423165 55.18354343 126.75979631 56.79898834 126.73821259 C59.06166476 126.70918299 61.32310489 126.70517643 63.5859375 126.70703125 C64.87389221 126.6981488 66.16184692 126.68926636 67.48883057 126.68011475 C70.74121094 127.16113281 70.74121094 127.16113281 73.19139099 128.9467926 C75.24769904 131.88478912 74.86436549 133.99518443 74.30361938 137.4414978 C73.1541091 143.00017749 71.86736994 148.51461472 70.50292969 154.02441406 C70.17754101 155.34715944 69.85225083 156.66992905 69.52705383 157.99272156 C68.84792978 160.74793946 68.16381518 163.50186515 67.47680664 166.25512695 C66.59908644 169.77673159 65.73997289 173.30259826 64.88519573 176.82983112 C64.22130677 179.55603742 63.5446881 182.27896658 62.86451149 185.00115013 C62.38612532 186.92888836 61.92081207 188.85985564 61.45573425 190.79084778 C61.15895279 191.96274155 60.86217133 193.13463531 60.55639648 194.34204102 C60.30182175 195.37190628 60.04724701 196.40177155 59.78495789 197.46284485 C58.56389942 200.61951743 57.34794088 202.01748325 54.74121094 204.16113281 C52.28607178 204.64215088 52.28607178 204.64215088 49.51367188 204.61523438 C48.4728949 204.61493225 47.43211792 204.61463013 46.35980225 204.61431885 C44.68461517 204.58335114 44.68461517 204.58335114 42.97558594 204.55175781 C41.82705139 204.54609802 40.67851685 204.54043823 39.49517822 204.53460693 C35.82676519 204.51221612 32.15932877 204.46201223 28.49121094 204.41113281 C26.00424588 204.39107142 23.51726551 204.37282003 21.03027344 204.35644531 C14.93358605 204.31234237 8.83746826 204.2454023 2.74121094 204.16113281 C2.74397632 204.79043292 2.7467417 205.41973303 2.74959087 206.06810284 C2.81585583 221.38328179 2.86549396 236.69841085 2.89664745 252.01369762 C2.91211365 259.42007281 2.93319837 266.82635227 2.9675293 274.23266602 C2.99743931 280.68832361 3.01678774 287.14391189 3.02347642 293.59963685 C3.027386 297.01763988 3.03656866 300.43544458 3.05840111 303.85338402 C3.0801244 307.66987323 3.08317991 311.48594932 3.08178711 315.30249023 C3.09257294 316.43465469 3.10335876 317.56681915 3.11447144 318.73329163 C3.11034744 319.7751059 3.10622345 320.81692017 3.10197449 321.89030457 C3.10473987 322.7927399 3.10750525 323.69517523 3.11035442 324.62495708 C2.65240589 327.77126196 1.6682996 329.64425294 -0.25878906 332.16113281 C-3.04063605 332.66081077 -5.21930936 332.81604298 -8.00317383 332.76049805 C-8.79043854 332.76444077 -9.57770325 332.76838348 -10.38882446 332.77244568 C-12.99326023 332.77916341 -15.59594699 332.74998156 -18.20019531 332.71972656 C-20.00715291 332.71547748 -21.81411596 332.713148 -23.62107849 332.71266174 C-27.40836308 332.70649261 -31.19505709 332.68377348 -34.98217773 332.64819336 C-39.84379862 332.602888 -44.70488464 332.58816613 -49.56669712 332.58445644 C-53.29755458 332.58003406 -57.02829907 332.56474178 -60.75910759 332.54557991 C-62.55211391 332.5366829 -64.34513234 332.52996011 -66.13815498 332.52541924 C-68.64024383 332.51640527 -71.1418421 332.49404076 -73.64379883 332.4675293 C-74.38930496 332.46686462 -75.1348111 332.46619995 -75.90290833 332.46551514 C-81.02961638 332.3903055 -81.02961638 332.3903055 -83.25878906 330.16113281 C-83.50488472 327.94724846 -83.50488472 327.94724846 -83.4992981 325.13717651 C-83.50204742 324.07424377 -83.50479675 323.01131104 -83.50762939 321.91616821 C-83.50043884 320.74516571 -83.49324829 319.57416321 -83.48583984 318.36767578 C-83.4861319 317.13843384 -83.48642395 315.90919189 -83.48672485 314.6427002 C-83.48556812 311.26679791 -83.47551996 307.89113856 -83.46157694 304.51527929 C-83.44909625 300.98920751 -83.44790119 297.46313269 -83.44552612 293.93704224 C-83.43930351 287.25762606 -83.42288216 280.57827515 -83.40282714 273.89888775 C-83.38049241 266.29560949 -83.36948083 258.69232815 -83.35943627 251.08902526 C-83.33851658 235.44635661 -83.30332547 219.80375312 -83.25878906 204.16113281 C-84.28236259 204.17112556 -84.28236259 204.17112556 -85.32661438 204.18132019 C-92.41520486 204.24758111 -99.50370768 204.29289501 -106.5925293 204.32592773 C-109.23970105 204.34103401 -111.8868477 204.36152012 -114.53393555 204.38745117 C-118.33421008 204.42375273 -122.13415433 204.44084084 -125.93457031 204.45410156 C-127.71593132 204.47732735 -127.71593132 204.47732735 -129.53327942 204.50102234 C-130.63419418 204.50124893 -131.73510895 204.50147552 -132.86938477 204.50170898 C-134.32499565 204.51170174 -134.32499565 204.51170174 -135.81001282 204.52189636 C-138.25878906 204.16113281 -138.25878906 204.16113281 -140.07139683 202.83197021 C-142.00207836 200.11521426 -141.64880441 197.54110543 -141.6628418 194.25878906 C-141.66970505 193.56091278 -141.6765683 192.8630365 -141.68363953 192.14401245 C-141.70194227 189.83701234 -141.69806578 187.53068995 -141.69238281 185.22363281 C-141.69694264 183.62084735 -141.70224762 182.01806385 -141.70826721 180.4152832 C-141.71720485 177.05607154 -141.7147675 173.69709754 -141.70483398 170.33789062 C-141.69333719 166.02994938 -141.71356259 161.72282694 -141.74275112 157.41499329 C-141.76108298 154.10529356 -141.76082686 150.79579121 -141.7551136 147.48605347 C-141.75496005 145.89760183 -141.76103246 144.3091371 -141.77340508 142.72073364 C-141.78825922 140.5011227 -141.77768198 138.28303919 -141.76049805 136.06347656 C-141.76033188 134.80011475 -141.76016571 133.53675293 -141.75999451 132.23510742 C-141.25878906 129.16113281 -141.25878906 129.16113281 -139.56562805 127.25102234 C-136.79879092 125.94380202 -134.90544505 125.79912354 -131.84765625 125.82055664 C-130.22642853 125.82089653 -130.22642853 125.82089653 -128.57244873 125.82124329 C-127.41190979 125.83672714 -126.25137085 125.852211 -125.05566406 125.86816406 C-123.86273743 125.87240891 -122.66981079 125.87665375 -121.44073486 125.88102722 C-117.62985687 125.89782258 -113.81950728 125.93547764 -110.00878906 125.97363281 C-107.42546337 125.98867848 -104.84212938 126.00236709 -102.25878906 126.01464844 C-95.92527538 126.047729 -89.59206997 126.09793757 -83.25878906 126.16113281 C-83.26767151 125.57025879 -83.27655396 124.97938477 -83.28570557 124.37060547 C-83.37520018 118.13974834 -83.4349398 111.90907791 -83.47851562 105.67773438 C-83.49845196 103.36190355 -83.52561103 101.04612187 -83.56054688 98.73046875 C-83.99262577 69.32368756 -77.13152272 45.68345896 -56.38378906 23.97363281 C-41.69986712 9.82831032 -20.44711254 0.11082889 0 0 Z M-45.25878906 32.16113281 C-46.04253906 32.86238281 -46.82628906 33.56363281 -47.63378906 34.28613281 C-53.29116441 39.63770409 -57.41527369 45.40849052 -61.25878906 52.16113281 C-61.7215625 52.95132813 -62.18433594 53.74152344 -62.66113281 54.55566406 C-70.5803179 69.0701583 -71.30815327 84.89865225 -71.57519531 101.05175781 C-71.59384644 102.0029248 -71.61249756 102.9540918 -71.63171387 103.93408203 C-71.69908755 107.42635412 -71.75981966 110.91875181 -71.82128906 114.41113281 C-71.96566406 122.24863281 -72.11003906 130.08613281 -72.25878906 138.16113281 C-100.47378906 138.65613281 -100.47378906 138.65613281 -129.25878906 139.16113281 C-129.25878906 156.65113281 -129.25878906 174.14113281 -129.25878906 192.16113281 C-125.22789062 192.22171875 -121.19699219 192.28230469 -117.04394531 192.34472656 C-113.83799475 192.39566339 -110.63206352 192.44758484 -107.42613983 192.50017548 C-104.03746292 192.55549258 -100.6487787 192.60905812 -97.26000977 192.65844727 C-93.37539479 192.71514228 -89.49093029 192.77970866 -85.60644531 192.84472656 C-84.38667496 192.86143906 -83.1669046 192.87815155 -81.91017151 192.89537048 C-80.78908493 192.9153157 -79.66799835 192.93526093 -78.51293945 192.95581055 C-77.52032608 192.97135483 -76.52771271 192.98689911 -75.50502014 193.00291443 C-73.25878906 193.16113281 -73.25878906 193.16113281 -72.25878906 194.16113281 C-72.15056517 195.79296588 -72.11193875 197.42945624 -72.10057068 199.06483459 C-72.09078186 200.12639267 -72.08099304 201.18795074 -72.07090759 202.28167725 C-72.0622744 204.04357391 -72.0622744 204.04357391 -72.0534668 205.84106445 C-72.0435672 207.07016037 -72.0336676 208.29925629 -72.02346802 209.56559753 C-71.99721705 212.94559071 -71.97538123 216.32555947 -71.95546603 219.70559239 C-71.93364447 223.2343728 -71.90623711 226.7631096 -71.87940979 230.29185486 C-71.82943095 236.97833236 -71.78451146 243.66483399 -71.74138743 250.35135883 C-71.68284307 259.38382836 -71.61652842 268.41624058 -71.55063725 277.44865894 C-71.44698138 291.68611166 -71.35374627 305.92361328 -71.25878906 320.16113281 C-51.12878906 320.16113281 -30.99878906 320.16113281 -10.25878906 320.16113281 C-10.19820313 311.07710938 -10.13761719 301.99308594 -10.07519531 292.63378906 C-10.03472449 286.89615425 -9.99400421 281.15852303 -9.95214844 275.42089844 C-9.88568641 266.30380976 -9.82027464 257.18672182 -9.76147461 248.06958008 C-9.71865392 241.43081517 -9.67238137 234.79208498 -9.62191051 228.15337366 C-9.59529245 224.63610986 -9.57043904 221.11885302 -9.54971504 217.60154915 C-9.52655259 213.68134086 -9.49568568 209.76121449 -9.46411133 205.84106445 C-9.45835587 204.66646667 -9.4526004 203.4918689 -9.44667053 202.28167725 C-9.43688171 201.22011917 -9.4270929 200.1585611 -9.41700745 199.06483459 C-9.4105549 198.13658906 -9.40410234 197.20834352 -9.39745426 196.25196934 C-9.25878906 194.16113281 -9.25878906 194.16113281 -8.25878906 193.16113281 C-6.51040071 193.03798111 -4.75714402 192.9832547 -3.00463867 192.95581055 C-1.88355209 192.93586533 -0.76246552 192.9159201 0.39259338 192.89537048 C2.22224892 192.87030174 2.22224892 192.87030174 4.08886719 192.84472656 C5.33043076 192.82394547 6.57199432 192.80316437 7.85118103 192.78175354 C11.15720217 192.72729672 14.46323339 192.67709076 17.76934814 192.62890625 C21.14088585 192.57873426 24.51233147 192.5230258 27.88378906 192.46777344 C34.50285644 192.36043243 41.12199253 192.25869083 47.74121094 192.16113281 C49.45681036 185.40009891 51.16504819 178.63723612 52.86816406 171.87304688 C53.44849744 169.57183678 54.03051905 167.27105175 54.61425781 164.97070312 C55.45268111 161.6654902 56.28503501 158.35879966 57.11621094 155.05175781 C57.37869629 154.02246155 57.64118164 152.99316528 57.91162109 151.93267822 C58.15187012 150.97198425 58.39211914 150.01129028 58.63964844 149.02148438 C58.85282715 148.17765198 59.06600586 147.33381958 59.28564453 146.4644165 C59.87056497 143.89845334 59.87056497 143.89845334 59.74121094 140.16113281 C58.85615875 140.15082535 57.97110657 140.14051788 57.05923462 140.12989807 C48.73045277 140.03204015 40.40174387 139.92954254 32.07308388 139.82179356 C27.79093653 139.76655959 23.50878236 139.71313884 19.2265625 139.66381836 C15.09627606 139.61618178 10.96607393 139.56383923 6.83588791 139.50819206 C5.25780707 139.4877653 3.67970311 139.46905275 2.10158157 139.45205879 C-0.10375095 139.42802184 -2.30892358 139.39796647 -4.51416016 139.36645508 C-5.77102631 139.3509108 -7.02789246 139.33536652 -8.32284546 139.3193512 C-11.25878906 139.16113281 -11.25878906 139.16113281 -13.25878906 138.16113281 C-15.17313987 132.87290034 -14.44330579 126.75759677 -14.44628906 121.22363281 C-14.45853516 120.06283203 -14.47078125 118.90203125 -14.48339844 117.70605469 C-14.5084237 102.71592338 -12.77895992 88.15576141 -2.07128906 76.75097656 C10.26626885 65.92902382 23.14232563 64.71582501 38.92871094 64.47363281 C44.14683594 64.37050781 49.36496094 64.26738281 54.74121094 64.16113281 C54.74121094 47.00113281 54.74121094 29.84113281 54.74121094 12.16113281 C46.82121094 12.11988281 38.90121094 12.07863281 30.74121094 12.03613281 C28.27652344 12.0179248 25.81183594 11.9997168 23.27246094 11.98095703 C-2.30555443 11.8700308 -25.36731977 14.3635024 -45.25878906 32.16113281 Z " fill="#000000" transform="translate(289.2587890625,89.8388671875)"/>
</svg>
