<?xml version="1.0" encoding="UTF-8"?>
<svg version="1.1" xmlns="http://www.w3.org/2000/svg" width="512" height="512">
<path d="M0 0 C1.34657433 -0.01058945 1.34657433 -0.01058945 2.72035217 -0.02139282 C68.61197669 -0.4218201 130.19412643 17.94018927 180.2421875 62.203125 C181.49515625 63.28980469 181.49515625 63.28980469 182.7734375 64.3984375 C193.84866163 74.1431964 204.19333662 84.54274914 213.2421875 96.203125 C214.0053125 97.13769531 214.7684375 98.07226562 215.5546875 99.03515625 C250.96805105 143.24510851 268.73137111 199.34788569 268.6171875 255.578125 C268.61637177 257.09481781 268.61637177 257.09481781 268.61553955 258.64215088 C268.57562986 274.82026196 267.70559467 290.34684592 264.2421875 306.203125 C264.02256348 307.22937988 263.80293945 308.25563477 263.57666016 309.31298828 C256.32016446 342.38062861 243.05146817 374.61304471 223.2421875 402.203125 C222.54738281 403.17121094 221.85257812 404.13929688 221.13671875 405.13671875 C215.51398219 412.78961152 209.49087486 420.05926667 203.2421875 427.203125 C202.80148926 427.7084375 202.36079102 428.21375 201.90673828 428.734375 C169.4873916 465.66141727 124.88940145 492.2663673 77.4921875 504.765625 C76.47987061 505.04180664 75.46755371 505.31798828 74.42456055 505.60253906 C68.60756992 507.05739534 64.80808338 507.60959988 59.2421875 505.203125 C56.40965484 502.89237467 55.40380883 501.687989 54.2421875 498.203125 C54.13682543 495.20413806 54.08806814 492.22743924 54.08447266 489.22802734 C54.07939194 488.3087999 54.07431122 487.38957245 54.06907654 486.44248962 C54.05836602 484.44218273 54.04974852 482.4418638 54.04295731 480.44153976 C54.03114542 477.26090066 54.01168012 474.08039594 53.98983765 470.89981079 C53.92834472 461.85447779 53.87445872 452.80915463 53.84082031 443.76367188 C53.8196868 438.22928132 53.78422381 432.69512977 53.74006271 427.16087723 C53.72603424 425.06489534 53.71721051 422.96887109 53.71400833 420.8728447 C53.68646807 404.55252036 52.95288846 389.16555814 46.23046875 374.03515625 C44.64513125 369.49219305 44.697399 366.36080056 46.7421875 362.015625 C50.91801312 357.31782118 57.14953745 356.16227154 63.07446289 354.56933594 C95.99203828 345.64653673 128.69884488 325.13612467 146.14111328 295.16845703 C159.08197941 272.07001527 163.84668934 247.19982094 157.2421875 221.203125 C152.89615375 206.12771028 145.3746303 193.13195706 135.2421875 181.203125 C133.91730086 179.63014182 132.60425787 178.04708784 131.3046875 176.453125 C130.73878906 175.77765625 130.17289062 175.1021875 129.58984375 174.40625 C127.83833076 171.54290702 127.40596716 169.56470252 127.2421875 166.203125 C127.96749395 163.60624346 128.76446829 161.16549161 129.6796875 158.640625 C134.22972182 144.65721459 134.34485429 128.75553553 128.2421875 115.203125 C127.27263827 113.51856213 126.28086702 111.84596481 125.2421875 110.203125 C110.60067387 116.92309022 98.67434669 125.1420475 87.5703125 136.83203125 C84.65770049 139.79839952 83.24161581 140.36497401 79.21484375 140.44140625 C74.01042714 140.38007999 69.57882773 139.03738262 64.6796875 137.390625 C50.89937029 133.00422504 36.80509958 130.09357656 22.2890625 130 C21.55532913 129.99294037 20.82159576 129.98588074 20.06562805 129.97860718 C-4.59426237 129.79530826 -26.24145256 132.36433835 -49.7578125 140.203125 C-53.82121 140.90840898 -57.28863041 141.11493782 -60.87890625 138.88671875 C-62.95274292 137.07969148 -64.86642657 135.20002213 -66.7578125 133.203125 C-76.18929157 123.36064111 -87.91173979 114.99992811 -100.7578125 110.203125 C-101.56010387 111.69746923 -102.34903117 113.19898972 -103.1328125 114.703125 C-103.79410156 115.95609375 -103.79410156 115.95609375 -104.46875 117.234375 C-107.46953206 124.14526702 -108.17179898 130.69167889 -108.1953125 138.140625 C-108.20328857 139.50900513 -108.20328857 139.50900513 -108.21142578 140.9050293 C-108.10320106 147.89281984 -106.86869137 154.00431691 -104.36108398 160.52124023 C-102.47760869 165.65235668 -102.62635532 169.27203173 -104.7578125 174.203125 C-106.5703125 176.64453125 -106.5703125 176.64453125 -108.7578125 178.765625 C-123.48561035 194.2748012 -134.78320843 216.52793052 -135.7578125 238.203125 C-135.82097656 239.22921875 -135.88414062 240.2553125 -135.94921875 241.3125 C-136.83669815 267.99413877 -126.64655466 291.04450662 -109.7578125 311.203125 C-108.92830078 312.23566406 -108.92830078 312.23566406 -108.08203125 313.2890625 C-93.0401946 331.45414447 -69.28151701 344.24615676 -47.24609375 351.76171875 C-46.47966553 352.02380127 -45.7132373 352.28588379 -44.92358398 352.5559082 C-43.43384928 353.05809629 -41.93997187 353.54821287 -40.44165039 354.02416992 C-36.29323187 355.40272885 -33.47425678 356.72986042 -30.7578125 360.203125 C-27.45421643 370.11391322 -29.37420407 382.9913732 -33.7578125 392.203125 C-38.59518293 399.65027316 -44.29969159 403.19934744 -52.62109375 405.78125 C-67.75566737 408.76942907 -83.18485925 404.2006093 -95.77636719 395.8671875 C-100.18026466 392.85828873 -104.50984657 389.74947344 -108.82226562 386.61132812 C-111.41233679 384.7269272 -114.01816873 382.86575305 -116.6328125 381.015625 C-117.37273437 380.48582031 -118.11265625 379.95601563 -118.875 379.41015625 C-120.84789022 378.03655286 -120.84789022 378.03655286 -123.7578125 377.203125 C-102.0456256 408.09858789 -102.0456256 408.09858789 -69.7578125 425.203125 C-67.43924116 425.31723418 -65.11801962 425.38117484 -62.796875 425.4140625 C-61.42446725 425.44213161 -60.05207157 425.47079608 -58.6796875 425.5 C-56.53157908 425.5411966 -54.38369596 425.57811415 -52.23535156 425.60449219 C-50.15122886 425.63225496 -48.06810632 425.67811674 -45.984375 425.7265625 C-44.74252441 425.74638184 -43.50067383 425.76620117 -42.22119141 425.78662109 C-38.36869019 426.24992062 -36.00484981 427.08730611 -32.7578125 429.203125 C-29.90340157 433.04205907 -29.37983819 435.81220142 -29.36962891 440.55053711 C-29.35544418 442.44291359 -29.35544418 442.44291359 -29.3409729 444.3735199 C-29.34634353 445.74250606 -29.35249671 447.11148934 -29.359375 448.48046875 C-29.35735224 449.89384613 -29.35443912 451.30722249 -29.35067749 452.72059631 C-29.34626214 455.67865972 -29.35265846 458.63645076 -29.36669922 461.59448242 C-29.38377532 465.37511142 -29.3739555 469.15510069 -29.35598183 472.93570614 C-29.34510901 475.8534878 -29.34860652 478.77111938 -29.3563652 481.68890572 C-29.35835838 483.08228189 -29.35593908 484.47567195 -29.34892654 485.86903191 C-29.34125701 487.82145786 -29.35503084 489.77393192 -29.36962891 491.72631836 C-29.37201569 492.83486679 -29.37440247 493.94341522 -29.37686157 495.08555603 C-29.81969163 498.7095221 -30.85881792 501.09735022 -32.7578125 504.203125 C-37.41308305 507.3066387 -41.2845255 506.86248687 -46.7578125 506.203125 C-53.88508902 504.67585146 -60.83092905 502.45094675 -67.7578125 500.203125 C-68.55251953 499.94644043 -69.34722656 499.68975586 -70.16601562 499.42529297 C-102.7867483 488.66045119 -132.12319983 470.88292027 -157.7578125 448.203125 C-158.29116211 447.73293945 -158.82451172 447.26275391 -159.37402344 446.77832031 C-207.47756602 404.10628885 -239.99260883 340.84083091 -243.93341064 276.32852173 C-244.19705705 269.6408829 -244.18837844 262.95714264 -244.1328125 256.265625 C-244.12815979 255.2602066 -244.12350708 254.25478821 -244.11871338 253.21890259 C-244.04010508 238.71164089 -243.74186179 224.45041872 -240.7578125 210.203125 C-240.55913574 209.22827148 -240.36045898 208.25341797 -240.15576172 207.24902344 C-232.00663413 168.29192059 -216.45904513 131.59185879 -191.7578125 100.203125 C-190.99984375 99.23375 -190.241875 98.264375 -189.4609375 97.265625 C-177.13445454 81.87937677 -163.32140476 67.32519052 -147.7578125 55.203125 C-146.82195312 54.43871094 -145.88609375 53.67429688 -144.921875 52.88671875 C-104.91740194 20.85228852 -51.41048781 0.27106959 0 0 Z M-133.7578125 73.203125 C-134.31533203 73.64205078 -134.87285156 74.08097656 -135.44726562 74.53320312 C-150.27379367 86.3331738 -163.57321705 99.91603762 -174.7578125 115.203125 C-175.60385442 116.33096346 -176.45020986 117.45856681 -177.296875 118.5859375 C-201.10434395 150.68125244 -215.65040797 188.65119686 -220.7578125 228.203125 C-220.8520752 228.90961182 -220.94633789 229.61609863 -221.04345703 230.34399414 C-222.00146794 238.5007972 -222.00136371 246.68918345 -222.0078125 254.890625 C-222.00848724 255.66457611 -222.00916199 256.43852722 -222.00985718 257.2359314 C-221.99167823 270.42076412 -221.20683767 283.22039907 -218.7578125 296.203125 C-218.59152344 297.09676758 -218.42523438 297.99041016 -218.25390625 298.91113281 C-206.35337642 360.68369785 -169.86990258 415.92289297 -117.7578125 451.203125 C-86.83437952 471.64787031 -86.83437952 471.64787031 -51.7578125 481.203125 C-51.7578125 470.313125 -51.7578125 459.423125 -51.7578125 448.203125 C-55.1609375 448.1 -58.5640625 447.996875 -62.0703125 447.890625 C-81.50548182 447.05956693 -97.3969466 440.53180366 -111.7578125 427.203125 C-112.5621875 426.47867187 -113.3665625 425.75421875 -114.1953125 425.0078125 C-124.09783361 415.64485184 -131.85128798 404.29555657 -139.74267578 393.2487793 C-151.8829953 374.21622028 -151.8829953 374.21622028 -169.8828125 362.640625 C-172.73926484 361.84907797 -174.81880631 361.16681916 -177.3828125 359.640625 C-179.62488342 355.66604473 -179.51145838 351.64372474 -178.7578125 347.203125 C-176.87266027 344.62675029 -175.56446393 343.60645072 -172.7578125 342.203125 C-144.4953891 340.34985133 -119.99780208 350.31944348 -97.60400391 366.84716797 C-80.44075295 379.91083206 -80.44075295 379.91083206 -59.7578125 384.203125 C-55.75587846 383.20264149 -55.08549073 382.69464234 -52.7578125 379.203125 C-52.59067681 376.57780976 -52.59067681 376.57780976 -52.7578125 374.203125 C-53.45640381 373.92227051 -54.15499512 373.64141602 -54.87475586 373.35205078 C-74.08831187 365.57321928 -91.58282318 357.30529313 -107.7578125 344.203125 C-108.3156543 343.75743164 -108.87349609 343.31173828 -109.44824219 342.85253906 C-135.87652115 321.61370704 -153.46783589 292.02956416 -157.7578125 258.203125 C-160.10908612 226.52840698 -151.75873127 197.64783361 -132.7578125 172.203125 C-131.83347029 171.14863255 -130.90640369 170.09652171 -129.9765625 169.046875 C-127.37574734 166.32777972 -127.37574734 166.32777972 -127.8203125 162.578125 C-128.10801832 161.11469829 -128.42334623 159.65657767 -128.7578125 158.203125 C-133.3496092 135.27790469 -130.26541105 113.40490102 -117.6015625 93.54296875 C-115.11972876 90.39335347 -112.35210828 88.00027289 -108.7578125 86.203125 C-92.31217885 85.20694953 -73.95624999 97.08375755 -61.7578125 107.203125 C-60.99597656 108.07710938 -60.23414063 108.95109375 -59.44921875 109.8515625 C-56.98547217 112.61860335 -55.06345261 114.50988271 -51.7578125 116.203125 C-46.66949573 115.94089815 -42.18346344 114.43652705 -37.34472656 112.92578125 C-32.475546 111.56557226 -27.49429453 110.81554787 -22.5078125 110.015625 C-21.46641113 109.84683838 -20.42500977 109.67805176 -19.35205078 109.50415039 C-12.15818684 108.36595336 -5.0469131 107.40176163 2.2421875 107.203125 C3.29889648 107.1724292 3.29889648 107.1724292 4.37695312 107.14111328 C24.00616924 106.64752742 42.690336 108.7457289 61.8515625 112.984375 C62.75865967 113.18450195 63.66575684 113.38462891 64.6003418 113.59082031 C66.35146642 113.99668119 68.09576074 114.43332014 69.83129883 114.90136719 C70.62818115 115.10922852 71.42506348 115.31708984 72.24609375 115.53125 C73.29132202 115.82370605 73.29132202 115.82370605 74.35766602 116.12207031 C76.3364555 116.39783601 76.3364555 116.39783601 77.97900391 114.99462891 C79.06159525 113.84426173 80.10887863 112.66047631 81.13671875 111.4609375 C91.9531874 99.86183011 113.55554086 86.69555327 129.5546875 85.703125 C135.06634813 86.45046881 138.1371722 88.8440832 141.62109375 93.12890625 C142.36690187 94.24603938 143.09420612 95.37569852 143.8046875 96.515625 C144.18890869 97.12591553 144.57312988 97.73620605 144.96899414 98.36499023 C155.53050869 115.8723456 157.36059665 136.69966582 153.22192383 156.37988281 C152.42544635 160.30086061 151.84347914 163.40572674 153.2421875 167.203125 C155.16902964 169.90265768 155.16902964 169.90265768 157.6171875 172.703125 C177.32703103 197.08175348 184.37117654 227.42374531 182.2421875 258.203125 C179.12350135 286.60139826 165.67068658 310.68096868 146.2421875 331.203125 C145.42234375 332.08742188 144.6025 332.97171875 143.7578125 333.8828125 C125.67924687 352.76368134 102.90955217 364.17958207 78.68969727 373.23266602 C76.46649731 374.1141842 74.36067465 375.09649868 72.2421875 376.203125 C72.37496094 377.06035156 72.50773437 377.91757812 72.64453125 378.80078125 C72.82113281 379.94417969 72.99773437 381.08757812 73.1796875 382.265625 C73.35371094 383.39097656 73.52773438 384.51632812 73.70703125 385.67578125 C73.88363281 386.83980469 74.06023437 388.00382812 74.2421875 389.203125 C74.49989174 390.77876976 74.49989174 390.77876976 74.76280212 392.38624573 C75.28632209 396.55452577 75.4161402 400.6056606 75.44750977 404.80053711 C75.45740936 405.63061279 75.46730896 406.46068848 75.47750854 407.31591797 C75.50889092 410.03740669 75.53378817 412.75891282 75.55859375 415.48046875 C75.57918341 417.3761895 75.60018039 419.27190587 75.62156677 421.1676178 C75.67657974 426.14055822 75.72608006 431.11353863 75.77441406 436.08654785 C75.82478141 441.16776053 75.88038772 446.24891561 75.93554688 451.33007812 C76.04287409 461.28771114 76.14437483 471.2453943 76.2421875 481.203125 C77.99449568 480.73129714 79.74636402 480.25783557 81.49804688 479.78369141 C82.47366577 479.52020905 83.44928467 479.25672668 84.45446777 478.98526001 C115.08156632 470.39238541 143.98326494 452.71960062 167.13671875 431.15625 C169.039828 429.39084253 170.99567485 427.7356072 172.9921875 426.078125 C192.2255451 409.25867058 207.20017698 387.57380246 219.2421875 365.203125 C219.56928711 364.59952148 219.89638672 363.99591797 220.23339844 363.37402344 C249.0350874 309.67643553 253.89693558 245.47374068 236.41308594 187.45166016 C224.9077373 151.13916506 205.54793487 119.60814073 179.2421875 92.203125 C178.75637207 91.69007812 178.27055664 91.17703125 177.77001953 90.6484375 C170.18744947 82.66305132 162.07190745 75.77118884 153.2421875 69.203125 C152.39551514 68.56528076 152.39551514 68.56528076 151.53173828 67.91455078 C118.63701434 43.22214761 79.99840098 28.23190842 39.2421875 23.203125 C38.5188623 23.1088623 37.79553711 23.01459961 37.05029297 22.91748047 C-24.16700622 15.77482335 -85.77122133 35.32961943 -133.7578125 73.203125 Z " fill="#000000" transform="translate(243.7578125,2.796875)"/>
</svg>
