<?xml version="1.0" encoding="UTF-8"?>
<svg version="1.1" xmlns="http://www.w3.org/2000/svg" width="512" height="512">
<path d="M0 0 C0.9005864 -0.00701431 1.80117279 -0.01402863 2.72904968 -0.02125549 C5.61759506 -0.03865309 8.50593541 -0.04510727 11.39453125 -0.046875 C12.87509003 -0.04788712 12.87509003 -0.04788712 14.38555908 -0.04891968 C28.85671684 -0.03318728 42.97697736 0.33212486 57.20703125 3.203125 C58.1088916 3.38004883 59.01075195 3.55697266 59.93994141 3.73925781 C86.25496638 9.01959032 110.44163824 17.81083259 134.20703125 30.203125 C135.16738281 30.69296875 136.12773437 31.1828125 137.1171875 31.6875 C156.31906281 41.75505171 173.89450401 55.33300466 189.37792969 70.42089844 C191.19880887 72.19511333 193.03457054 73.95294014 194.87109375 75.7109375 C202.20814389 82.80980394 208.77739501 90.22130428 214.87158203 98.41015625 C216.23985998 100.24720072 217.62688654 102.06901431 219.015625 103.890625 C225.37936703 112.31510161 231.01364496 121.01445455 236.20703125 130.203125 C236.54831055 130.80060547 236.88958984 131.39808594 237.24121094 132.01367188 C256.16393893 165.36837518 268.20820085 205.50311711 268.41015625 243.99609375 C268.41717056 244.89668015 268.42418488 245.79726654 268.43141174 246.72514343 C268.44880934 249.61368881 268.45526352 252.50202916 268.45703125 255.390625 C268.45804337 256.87118378 268.45804337 256.87118378 268.45907593 258.38165283 C268.44334353 272.85281059 268.07803139 286.97307111 265.20703125 301.203125 C265.03010742 302.10498535 264.85318359 303.0068457 264.67089844 303.93603516 C263.37201838 310.40912395 261.86045999 316.81200988 260.20703125 323.203125 C259.99739746 324.02312988 259.78776367 324.84313477 259.57177734 325.68798828 C252.1951555 353.89405501 239.0824538 380.49582747 222.20703125 404.203125 C221.75247559 404.84701172 221.29791992 405.49089844 220.82958984 406.15429688 C213.89663515 415.90562252 206.33688865 424.80755793 197.98925781 433.37402344 C196.21504292 435.19490262 194.45721611 437.03066429 192.69921875 438.8671875 C185.58824374 446.21675247 178.16481188 452.78775251 169.96044922 458.88964844 C168.23393814 460.18296919 166.5340375 461.50561967 164.8359375 462.8359375 C126.00051719 492.82889894 73.88194126 512.14881239 24.51171875 512.40625 C23.60971741 512.41326431 22.70771606 512.42027863 21.77838135 512.42750549 C18.87954674 512.44493139 15.98091633 512.45135874 13.08203125 512.453125 C12.09249451 512.45379974 11.10295776 512.45447449 10.08343506 512.45516968 C-4.40621752 512.43944912 -18.54469826 512.07780045 -32.79296875 509.203125 C-33.6948291 509.02620117 -34.59668945 508.84927734 -35.52587891 508.66699219 C-41.9989677 507.36811213 -48.40185363 505.85655374 -54.79296875 504.203125 C-55.61297363 503.99349121 -56.43297852 503.78385742 -57.27783203 503.56787109 C-85.48389876 496.19124925 -112.08567122 483.07854755 -135.79296875 466.203125 C-136.43685547 465.74856934 -137.08074219 465.29401367 -137.74414062 464.82568359 C-147.49546627 457.8927289 -156.39740168 450.3329824 -164.96386719 441.98535156 C-166.78474637 440.21113667 -168.62050804 438.45330986 -170.45703125 436.6953125 C-177.80659622 429.58433749 -184.37759626 422.16090563 -190.47949219 413.95654297 C-191.77281294 412.23003189 -193.09546342 410.53013125 -194.42578125 408.83203125 C-224.53609972 369.83525482 -243.73625183 317.93608535 -243.99609375 268.41015625 C-244.00310806 267.50961517 -244.01012238 266.6090741 -244.01734924 265.6812439 C-244.03474777 262.79265274 -244.04120115 259.90426663 -244.04296875 257.015625 C-244.04364349 256.02825348 -244.04431824 255.04088196 -244.04501343 254.02359009 C-244.02926532 239.53224236 -243.5763795 225.46292249 -240.79296875 211.203125 C-240.55151123 209.85758545 -240.55151123 209.85758545 -240.30517578 208.48486328 C-233.17224431 169.06531022 -216.42398945 131.76568955 -191.79296875 100.203125 C-191.10847656 99.30722656 -190.42398438 98.41132812 -189.71875 97.48828125 C-184.45080312 90.72436568 -178.7032776 84.40570187 -172.79296875 78.203125 C-172.22126953 77.60274414 -171.64957031 77.00236328 -171.06054688 76.38378906 C-163.05229615 68.03503683 -154.82807993 60.38976449 -145.53027344 53.50048828 C-143.80921019 52.21525358 -142.11658075 50.8989234 -140.42578125 49.57421875 C-101.43347526 19.45856821 -49.52458438 0.2598333 0 0 Z M-125.79296875 55.203125 C-126.78039062 55.91984375 -127.7678125 56.6365625 -128.78515625 57.375 C-182.03077071 96.66565698 -218.15795495 152.78455065 -228.98046875 218.47265625 C-231.18840502 233.14367721 -232.51014436 248.37132295 -231.79296875 263.203125 C-231.75187988 264.05712891 -231.71079102 264.91113281 -231.66845703 265.79101562 C-230.80088438 282.23331897 -228.40993048 298.14641781 -224.79296875 314.203125 C-224.60895508 315.02329102 -224.42494141 315.84345703 -224.23535156 316.68847656 C-216.65761677 349.28254101 -200.38278606 380.02836629 -179.79296875 406.203125 C-179.11105469 407.07839844 -178.42914063 407.95367187 -177.7265625 408.85546875 C-139.28395219 457.06802423 -81.38785613 490.97769365 -19.79296875 498.203125 C-6.86820639 499.56727315 6.20661144 500.83174612 19.20703125 500.203125 C20.06103516 500.16203613 20.91503906 500.12094727 21.79492188 500.07861328 C44.0669738 498.9034359 66.03980897 495.33293764 87.20703125 488.203125 C88.01994629 487.93693359 88.83286133 487.67074219 89.67041016 487.39648438 C116.22663088 478.62198817 140.2532755 465.4659073 162.20703125 448.203125 C163.07070313 447.5328125 163.934375 446.8625 164.82421875 446.171875 C170.60396369 441.57551997 176.05333403 436.67006707 181.45703125 431.640625 C182.11864258 431.02751465 182.78025391 430.4144043 183.46191406 429.78271484 C188.01630677 425.49656331 192.17393964 420.98032728 196.20703125 416.203125 C196.7366748 415.57962158 197.26631836 414.95611816 197.81201172 414.3137207 C224.55562212 382.5697119 242.2219677 345.67190881 251.20703125 305.203125 C251.3771875 304.43790527 251.54734375 303.67268555 251.72265625 302.88427734 C255.45495436 285.52989551 257.06359906 266.91767635 256.20703125 249.203125 C256.16594238 248.34912109 256.12485352 247.49511719 256.08251953 246.61523438 C255.21494688 230.17293103 252.82399298 214.25983219 249.20703125 198.203125 C248.93101074 196.97287598 248.93101074 196.97287598 248.64941406 195.71777344 C241.07167927 163.12370899 224.79684856 132.37788371 204.20703125 106.203125 C203.52511719 105.32785156 202.84320313 104.45257813 202.140625 103.55078125 C183.63564951 80.34288381 161.51887099 61.59725737 136.20703125 46.203125 C135.51593262 45.7793457 134.82483398 45.35556641 134.11279297 44.91894531 C121.13566144 37.05713012 107.39019291 31.5089294 93.20703125 26.203125 C92.5001416 25.93129395 91.79325195 25.65946289 91.06494141 25.37939453 C73.48699626 18.65168697 53.93138473 14.75843807 35.20703125 13.203125 C34.55234863 13.14817871 33.89766602 13.09323242 33.22314453 13.03662109 C-21.81286575 8.578507 -80.83286783 22.18764791 -125.79296875 55.203125 Z " fill="#000000" transform="translate(243.79296875,-0.203125)"/>
<path d="M0 0 C0.62390625 0.49886719 1.2478125 0.99773437 1.890625 1.51171875 C12.90500399 11.36016123 18.12116969 26.75708067 20 41 C20.14143942 44.80735208 20.12629641 48.61181242 20.11352539 52.42138672 C20.11367142 53.56343063 20.11381744 54.70547455 20.1139679 55.88212585 C20.11327256 59.64799922 20.10549784 63.4138228 20.09765625 67.1796875 C20.09579073 69.79428073 20.09436746 72.40887431 20.09336853 75.02346802 C20.09026557 81.19627984 20.08206618 87.36907387 20.07201904 93.54187787 C20.05972682 101.26229016 20.05426717 108.98270536 20.04882812 116.703125 C20.03910014 130.46876385 20.01906598 144.23436389 20 158 C0.2 158 -19.6 158 -40 158 C-40.03738281 151.35359375 -40.07476562 144.7071875 -40.11328125 137.859375 C-40.14358354 133.63018319 -40.17474624 129.40103232 -40.20898438 125.171875 C-40.26315918 118.47007393 -40.31427484 111.76835383 -40.34643555 105.06640625 C-40.37258599 99.65866761 -40.41307052 94.25120332 -40.46318626 88.84363556 C-40.47977591 86.78818443 -40.49133909 84.73268593 -40.49761391 82.67717743 C-39.88140548 64.61780563 -39.88140548 64.61780563 -46.4375 48.375 C-51.79129114 43.41294968 -56.3703307 43.56878928 -63.5078125 43.6875 C-69.7416369 44.24533664 -73.35963008 46.05745667 -77.375 50.8125 C-81.89546932 59.67957443 -82.13423482 69.33605877 -82.20532227 79.09985352 C-82.21522186 79.95948196 -82.22512146 80.81911041 -82.23532104 81.70478821 C-82.26661076 84.51280068 -82.29156313 87.32083 -82.31640625 90.12890625 C-82.33700396 92.08902903 -82.35800112 94.04914766 -82.37937927 96.00926208 C-82.4343092 101.14328623 -82.48384551 106.27734851 -82.53222656 111.41143799 C-82.59153717 117.58488339 -82.65760358 123.75825981 -82.72252655 129.93164825 C-82.82016965 139.28772301 -82.90927598 148.64384407 -83 158 C-102.14 158 -121.28 158 -141 158 C-141 102.89 -141 47.78 -141 -9 C-121.86 -9 -102.72 -9 -83 -9 C-82.505 -4.545 -82.505 -4.545 -82 0 C-81.41734375 -0.44730469 -80.8346875 -0.89460937 -80.234375 -1.35546875 C-56.48908102 -18.86575629 -23.15121994 -18.8411524 0 0 Z M-78.98828125 14.39453125 C-82.9161955 19.48175223 -85.87118138 25.18195747 -88.84667969 30.86352539 C-90.50763576 33.94037268 -92.26523232 36.96415656 -94 40 C-94.33 28.12 -94.66 16.24 -95 4 C-105.89 4 -116.78 4 -128 4 C-128 50.86 -128 97.72 -128 146 C-117.11 146 -106.22 146 -95 146 C-94.9906543 143.4628833 -94.98130859 140.9257666 -94.97167969 138.31176758 C-94.93776236 129.8858786 -94.88213229 121.46023074 -94.81609726 113.03453541 C-94.77675456 107.93097039 -94.74450169 102.8275745 -94.72900391 97.72387695 C-94.71374984 92.78937894 -94.67915095 87.85534634 -94.63169098 82.92105675 C-94.61696683 81.04785925 -94.60896419 79.17459528 -94.60811615 77.3013401 C-94.59641423 64.4021522 -94.51113947 51.16087492 -85.765625 40.71484375 C-77.67801308 32.85984014 -69.21789325 30.59479453 -58.07080078 30.63208008 C-50.37017559 30.81974835 -45.06070629 33.03652804 -38.6875 37.125 C-29.473793 46.98152377 -27.89687928 60.40492718 -27.79467773 73.34375 C-27.78477814 74.13495743 -27.77487854 74.92616486 -27.76467896 75.74134827 C-27.73337297 78.32753624 -27.70843029 80.91374251 -27.68359375 83.5 C-27.66299745 85.30461067 -27.64200032 87.1092168 -27.62062073 88.91381836 C-27.56567622 93.64178779 -27.51614623 98.36979874 -27.46777344 103.09783936 C-27.40847636 108.7823486 -27.34240178 114.46678268 -27.27747345 120.15122986 C-27.17981195 128.7674403 -27.0907182 137.38370106 -27 146 C-15.45 146 -3.9 146 8 146 C8.04539898 134.02025641 8.08200081 122.04057107 8.10362434 110.0607605 C8.11400874 104.49652886 8.12806893 98.93235974 8.15087891 93.36816406 C8.17279962 87.98648474 8.18460868 82.6048651 8.18975449 77.22314453 C8.19341605 75.18211937 8.2005648 73.14109702 8.21146011 71.10009766 C8.3193771 50.02312406 8.33837242 28.96184247 -6.375 12.3125 C-7.24125 11.549375 -8.1075 10.78625 -9 10 C-9.82564453 9.26136719 -9.82564453 9.26136719 -10.66796875 8.5078125 C-30.19304222 -7.67585665 -62.06247459 -3.35524977 -78.98828125 14.39453125 Z " fill="#000000" transform="translate(358,220)"/>
<path d="M0 0 C20.13 0 40.26 0 61 0 C61 55.11 61 110.22 61 167 C40.87 167 20.74 167 0 167 C0 111.89 0 56.78 0 0 Z M13 13 C13 59.86 13 106.72 13 155 C24.55 155 36.1 155 48 155 C48 108.14 48 61.28 48 13 C36.45 13 24.9 13 13 13 Z " fill="#000000" transform="translate(138,211)"/>
<path d="M0 0 C9.03238344 4.91879796 15.10798124 11.78597342 18.890625 21.34765625 C21.74263215 31.15036348 20.65644396 41.07689278 16.015625 50.09765625 C10.8352198 58.59298394 3.70260734 64.51523997 -5.984375 67.09765625 C-18.60730212 68.17035559 -28.25548927 67.29139956 -38.296875 58.97265625 C-44.6885315 52.89254276 -48.58235336 45.64028252 -49.22265625 36.8125 C-49.46904968 24.27237124 -47.39909822 15.53306338 -38.5 6.265625 C-28.4025149 -2.4364002 -12.49032419 -5.12484676 0 0 Z M-28.734375 14.72265625 C-33.25644542 19.49595281 -36.65481929 25.32721756 -37.12109375 31.98828125 C-36.70357814 38.42995068 -34.65972405 44.5558886 -29.984375 49.09765625 C-24.59948769 53.28590194 -19.40973835 55.43607954 -12.546875 55.03515625 C-6.19709281 54.10486448 -1.31835533 50.86044978 2.890625 46.09765625 C7.23188072 39.96882464 7.83233683 34.45840084 7.015625 27.09765625 C5.25222425 20.93103328 1.40672008 16.47762016 -3.984375 13.09765625 C-12.92545508 9.09531466 -20.31234115 9.74599988 -28.734375 14.72265625 Z " fill="#000000" transform="translate(182.984375,135.90234375)"/>
</svg>
